<svg width="16" height="16" viewBox="0 0 16 16" fill="none" xmlns="http://www.w3.org/2000/svg">
<rect width="16" height="16" rx="2" fill="#131313"/>
<path d="M12.5 4C12.7761 4 13 4.22386 13 4.5V6.79297C13 6.92555 12.9473 7.05273 12.8535 7.14648L12.3535 7.64648C12.1583 7.84174 12.1583 8.15826 12.3535 8.35352L12.8535 8.85352C12.9473 8.94727 13 9.07445 13 9.20703V11.793C13 11.9255 12.9473 12.0527 12.8535 12.1465L11.1465 13.8535C11.0527 13.9473 10.9255 14 10.793 14H4.5C4.22386 14 4 13.7761 4 13.5V11.5C4 11.2239 4.22386 11 4.5 11H5.5C5.74171 11 5.94371 11.1714 5.99023 11.3994L6.00977 11.6006C6.05629 11.8286 6.25829 12 6.5 12H10.5C10.7761 12 11 11.7761 11 11.5V9.5C11 9.22386 10.7761 9 10.5 9H6.5C6.22386 9 6 8.77614 6 8.5V7.5C6 7.22386 6.22386 7 6.5 7H10.5C10.7761 7 11 6.77614 11 6.5V4H12.5Z" fill="#50E3C2"/>
<path d="M10.5 2C10.7761 2 11 2.22386 11 2.5V4H4.5C4.22386 4 4 3.77614 4 3.5V2.5C4 2.22386 4.22386 2 4.5 2H10.5Z" fill="#50E3C2"/>
<path d="M12 6.79289C12 6.9255 11.9473 7.05268 11.8536 7.14645L11.3536 7.64645C11.1583 7.84171 11.1583 8.15829 11.3536 8.35355L11.8536 8.85355C11.9473 8.94732 12 9.0745 12 9.20711V11.7929C12 11.9255 11.9473 12.0527 11.8536 12.1464L10.1464 13.8536C10.0527 13.9473 9.9255 14 9.79289 14H3.5C3.22386 14 3 13.7761 3 13.5V11.5C3 11.2239 3.22386 11 3.5 11H4.5C4.77614 11 5 11.2239 5 11.5C5 11.7761 5.22386 12 5.5 12H9.5C9.77614 12 10 11.7761 10 11.5V9.5C10 9.22386 9.77614 9 9.5 9H5.5C5.22386 9 5 8.77614 5 8.5V7.5C5 7.22386 5.22386 7 5.5 7H9.5C9.77614 7 10 6.77614 10 6.5V4H11.5C11.7761 4 12 4.22386 12 4.5V6.79289Z" fill="#F9F9F9"/>
<path d="M10 4H3.5C3.22386 4 3 3.77614 3 3.5V2.5C3 2.22386 3.22386 2 3.5 2H9.5C9.77614 2 10 2.22386 10 2.5V4Z" fill="#F9F9F9"/>
<path d="M0.75 14V13H1.25V14C1.25 14.4142 1.58579 14.75 2 14.75H3V15.25H2C1.30964 15.25 0.75 14.6904 0.75 14ZM6 14.75V15.25H4V14.75H6ZM9 14.75V15.25H7V14.75H9ZM12 14.75V15.25H10V14.75H12ZM14.75 14V13H15.25V14C15.25 14.6904 14.6904 15.25 14 15.25H13V14.75H14C14.4142 14.75 14.75 14.4142 14.75 14ZM1.25 10V12H0.75V10H1.25ZM15.25 10V12H14.75V10H15.25ZM1.25 7V9H0.75V7H1.25ZM15.25 7V9H14.75V7H15.25ZM1.25 4V6H0.75V4H1.25ZM15.25 4V6H14.75V4H15.25ZM0.75 2C0.75 1.30964 1.30964 0.75 2 0.75H3V1.25H2C1.58579 1.25 1.25 1.58579 1.25 2V3H0.75V2ZM14.75 2C14.75 1.58579 14.4142 1.25 14 1.25H13V0.75H14C14.6904 0.75 15.25 1.30964 15.25 2V3H14.75V2ZM6 0.75V1.25H4V0.75H6ZM9 0.75V1.25H7V0.75H9ZM12 0.75V1.25H10V0.75H12Z" fill="#FFC300"/>
</svg>
