<svg xmlns="http://www.w3.org/2000/svg" fill="none" viewBox="0 0 100 100">
  <path fill="url(#paint0_linear_5423_10631)" d="M50 .279c27.614 0 50 22.385 50 50 0 27.614-22.386 50-50 50s-50-22.386-50-50c0-27.615 22.386-50 50-50Z"/>
  <path fill="url(#paint1_radial_5423_10631)" d="M50 .279c27.614 0 50 22.385 50 50 0 27.614-22.386 50-50 50s-50-22.386-50-50c0-27.615 22.386-50 50-50Z"/>
  <path fill="url(#paint2_radial_5423_10631)" d="M50 .279c27.614 0 50 22.385 50 50 0 27.614-22.386 50-50 50s-50-22.386-50-50c0-27.615 22.386-50 50-50Z"/>
  <path fill="url(#paint3_radial_5423_10631)" d="M50 .279c27.614 0 50 22.385 50 50 0 27.614-22.386 50-50 50s-50-22.386-50-50c0-27.615 22.386-50 50-50Z"/>
  <path fill="#fff" d="M39.328 77.66V54.464L61.866 77.66h12.539v-.604L48.48 50.638l23.93-25.063v-.296H59.79L39.327 47.426V25.28H29.167v52.38h10.16Z"/>
  <defs>
    <radialGradient id="paint1_radial_5423_10631" cx="0" cy="0" r="1" gradientTransform="rotate(-45.156 118.416 42.5) scale(160.368 162.768)" gradientUnits="userSpaceOnUse">
      <stop stop-color="#232DE3"/>
      <stop offset="1" stop-color="#232DE3" stop-opacity="0"/>
    </radialGradient>
    <radialGradient id="paint2_radial_5423_10631" cx="0" cy="0" r="1" gradientTransform="matrix(-75.04053 -66.50709 101.40455 -114.41565 94.614 99.708)" gradientUnits="userSpaceOnUse">
      <stop stop-color="#8B4DFF"/>
      <stop offset="1" stop-color="#8B4DFF" stop-opacity="0"/>
    </radialGradient>
    <radialGradient id="paint3_radial_5423_10631" cx="0" cy="0" r="1" gradientTransform="matrix(0 78.8417 -191.291 0 49.167 1.02)" gradientUnits="userSpaceOnUse">
      <stop stop-color="#24D5FF"/>
      <stop offset="1" stop-color="#1BB8FF" stop-opacity="0"/>
    </radialGradient>
    <linearGradient id="paint0_linear_5423_10631" x1="50" x2="50" y1=".279" y2="100.279" gradientUnits="userSpaceOnUse">
      <stop stop-color="#1FD1FF"/>
      <stop offset="1" stop-color="#1BB8FF"/>
    </linearGradient>
  </defs>
</svg>
