<svg xmlns="http://www.w3.org/2000/svg" fill="none" viewBox="0 0 100 100">
  <circle cx="50" cy="50" r="50" fill="#4084ED"/>
  <path fill="#fff" d="M27.859 35.718c12.226-12.208 32.054-12.208 44.28 0l1.47 1.461a1.546 1.546 0 0 1 0 2.208l-5.028 5.031a.797.797 0 0 1-1.104 0l-2.03-2.03c-8.532-8.523-22.363-8.523-30.895 0l-2.167 2.168a.797.797 0 0 1-1.101 0l-5.05-5.01a1.546 1.546 0 0 1 0-2.209l1.625-1.619Zm54.687 10.396 4.49 4.478a1.547 1.547 0 0 1 0 2.208L66.82 72.978a1.553 1.553 0 0 1-2.205 0L50.279 58.659a.388.388 0 0 0-.433-.088.389.389 0 0 0-.128.088L35.384 72.978a1.554 1.554 0 0 1-2.205 0L12.963 52.8a1.548 1.548 0 0 1 0-2.208l4.488-4.478a1.554 1.554 0 0 1 2.206 0l14.334 14.32a.391.391 0 0 0 .561 0l14.335-14.32a1.555 1.555 0 0 1 2.206 0l14.334 14.32a.394.394 0 0 0 .561 0l14.335-14.32a1.578 1.578 0 0 1 2.223 0Z"/>
</svg>
