<svg xmlns="http://www.w3.org/2000/svg" fill="none" viewBox="0 0 100 100">
  <circle cx="50" cy="50" r="50" fill="#fff"/>
  <path fill="url(#a)" fill-rule="evenodd" d="m81.551 30.711 1.87-4.49s-2.38-2.494-5.27-5.322c-2.89-2.827-9.01-1.164-9.01-1.164L62.17 12h-24.48l-6.97 7.735s-6.12-1.663-9.01 1.164c-2.89 2.828-5.27 5.323-5.27 5.323l1.871 4.49-2.382 6.651s7.001 25.935 7.822 29.103c1.615 6.236 2.72 8.647 7.31 11.807 4.589 3.16 12.919 8.647 14.278 9.48 1.36.83 3.062 2.247 4.592 2.247 1.53 0 3.23-1.417 4.589-2.247 1.36-.832 9.689-6.32 14.28-9.48 4.59-3.159 5.696-5.571 7.31-11.807.82-3.168 7.82-29.103 7.82-29.103l-2.38-6.652Z" clip-rule="evenodd"/>
  <path fill="#fff" fill-rule="evenodd" d="M58.527 26.157c1.011 0 8.514-1.407 8.514-1.407s8.89 10.557 8.89 12.814c0 1.865-.766 2.595-1.666 3.456-.188.18-.384.365-.578.57l-6.665 6.952c-.071.074-.144.147-.217.219-.666.657-1.645 1.625-.955 3.233l.142.327c.758 1.741 1.694 3.891.503 6.068-1.267 2.318-3.437 3.865-4.828 3.609-1.39-.256-4.657-1.933-5.858-2.698-1.2-.766-5.008-3.85-5.008-5.031 0-.984 2.738-2.62 4.068-3.417.265-.158.474-.282.594-.363.137-.091.367-.23.65-.404 1.213-.741 3.406-2.08 3.461-2.672.068-.732.042-.946-.937-2.753-.208-.384-.451-.795-.702-1.22-.933-1.576-1.976-3.34-1.744-4.603.26-1.426 2.535-2.244 4.462-2.937.24-.085.476-.17.7-.254l2.008-.74c1.924-.709 4.06-1.495 4.414-1.655.487-.22.361-.431-1.116-.569-.24-.023-.479-.047-.718-.073-1.83-.19-5.204-.542-6.844-.093-.323.088-.684.184-1.063.285-1.843.49-4.102 1.091-4.32 1.438-.037.06-.074.113-.11.162-.207.289-.342.479-.112 1.71.068.367.209 1.088.383 1.98.507 2.613 1.302 6.687 1.402 7.602.014.129.03.251.045.37.127 1.022.211 1.702-.996 1.973l-.315.07c-1.363.307-3.36.758-4.08.758-.723 0-2.721-.45-4.084-.757l-.314-.07c-1.207-.272-1.121-.952-.994-1.973.015-.12.03-.244.043-.371.1-.916.897-5.001 1.406-7.612.173-.888.313-1.606.381-1.97.229-1.231.094-1.421-.114-1.71a4.543 4.543 0 0 1-.11-.162c-.216-.347-2.474-.947-4.318-1.438-.38-.1-.742-.197-1.063-.285-1.641-.45-5.015-.098-6.845.093-.28.03-.521.055-.717.073-1.479.138-1.604.35-1.116.57.352.159 2.489.945 4.412 1.653.738.271 1.446.532 2.008.741.226.084.461.168.702.255 1.927.694 4.202 1.51 4.462 2.936.23 1.264-.813 3.027-1.744 4.602-.252.426-.495.837-.704 1.221-.978 1.807-1.004 2.021-.936 2.754.055.593 2.246 1.93 3.46 2.671.283.173.514.313.65.404.122.08.33.205.594.363 1.33.795 4.069 2.432 4.069 3.417 0 1.18-3.806 4.265-5.008 5.031-1.2.767-4.467 2.442-5.858 2.698-1.39.255-3.561-1.29-4.828-3.607-1.19-2.179-.256-4.329.502-6.07l.143-.327c.69-1.608-.288-2.576-.955-3.233a11.754 11.754 0 0 1-.216-.219l-6.665-6.953c-.196-.203-.391-.389-.58-.569-.9-.86-1.664-1.59-1.664-3.456 0-2.256 8.89-12.814 8.89-12.814s7.501 1.407 8.513 1.407c.807 0 2.365-.526 3.99-1.076.412-.139.827-.28 1.236-.413C48.581 24.005 49.93 24 49.93 24s1.348.005 3.371.668c.408.133.825.274 1.237.413 1.623.55 3.183 1.076 3.989 1.076ZM57.24 63.502c1.585.803 2.71 1.372 3.136 1.633.55.338.215.977-.287 1.326-.501.346-7.238 5.471-7.89 6.038l-.267.232C51.303 73.288 50.5 74 49.93 74c-.569 0-1.372-.713-2.003-1.27l-.263-.232c-.656-.567-7.391-5.692-7.892-6.04-.501-.347-.837-.984-.287-1.325.425-.26 1.552-.83 3.14-1.634l1.508-.766c2.374-1.206 5.336-2.234 5.798-2.234.462 0 3.422 1.027 5.799 2.234.539.275 1.045.533 1.51.768Z" clip-rule="evenodd"/>
  <path fill="url(#b)" fill-rule="evenodd" d="M68.99 19.706 62.076 12h-24.29l-6.915 7.706s-6.073-1.657-8.94 1.159c0 0 8.098-.718 10.88 3.728 0 0 7.506 1.407 8.518 1.407 1.012 0 3.205-.827 5.229-1.49s3.374-.668 3.374-.668 1.349.005 3.373.668S57.521 26 58.533 26c1.012 0 8.519-1.407 8.519-1.407 2.783-4.446 10.878-3.728 10.878-3.728-2.867-2.816-8.94-1.16-8.94-1.16Z" clip-rule="evenodd"/>
  <defs>
    <linearGradient id="a" x1="15.932" x2="83.93" y1="90.551" y2="90.551" gradientUnits="userSpaceOnUse">
      <stop stop-color="#F50"/>
      <stop offset=".41" stop-color="#F50"/>
      <stop offset=".582" stop-color="#FF2000"/>
      <stop offset="1" stop-color="#FF2000"/>
    </linearGradient>
    <linearGradient id="b" x1="23.133" x2="77.93" y1="25.949" y2="25.949" gradientUnits="userSpaceOnUse">
      <stop stop-color="#FF452A"/>
      <stop offset="1" stop-color="#FF2000"/>
    </linearGradient>
  </defs>
</svg>