<svg xmlns="http://www.w3.org/2000/svg" fill="none" viewBox="0 0 100 100">
  <circle cx="50" cy="50" r="50" fill="#fff"/>
  <path fill="#CDBDB2" fill-rule="evenodd" d="m63.675 73.523-8.382 2.225v-2.91l-.684-.683h-4.79v5.816h5.132l6.33-2.737 2.395-1.71h-.001Z" clip-rule="evenodd"/>
  <path fill="#CDBDB2" fill-rule="evenodd" d="m36.316 73.523 8.212 2.225v-2.91l.683-.683h4.79v5.816H44.87l-6.33-2.737-2.224-1.71Z" clip-rule="evenodd"/>
  <path fill="#393939" fill-rule="evenodd" d="m54.614 67.193.683 5.646-.854-.685h-8.897l-1.026.684.684-5.646 1.368-.855 6.844.171 1.197.684Z" clip-rule="evenodd"/>
  <path fill="#F89C35" fill-rule="evenodd" d="m59.234 29.042-4.105 9.58-1.883 27.886h-6.671l-2.053-27.885-3.763-9.581h18.475Z" clip-rule="evenodd"/>
  <path fill="#F89D35" fill-rule="evenodd" d="M77.21 50.082 82 63.94l-11.976-.684h-7.697V57.27l.342-12.318 1.71 1.368 12.83 3.763Z" clip-rule="evenodd"/>
  <path fill="#D87C30" fill-rule="evenodd" d="m68.131 51.623-14.027.342 1.538 7.185 6.672-1.71 5.817-5.818v.002Z" clip-rule="evenodd"/>
  <path fill="#EA8D3A" fill-rule="evenodd" d="m68.131 51.794-5.816 5.474v5.474l5.816-10.948Z" clip-rule="evenodd"/>
  <path fill="#F89D35" fill-rule="evenodd" d="m62.33 57.44-6.844 1.71-2.225 7.357 1.54.856 7.528-4.449V57.44Z" clip-rule="evenodd"/>
  <path fill="#EB8F35" fill-rule="evenodd" d="m62.308 62.912 1.368 10.607-9.067-6.33 7.7-4.277Z" clip-rule="evenodd"/>
  <path fill="#EA8E3A" fill-rule="evenodd" d="m54.105 51.966-.856 14.54 2.567-7.44-1.712-7.1Z" clip-rule="evenodd"/>
  <path fill="#D87C30" fill-rule="evenodd" d="m70.19 63.084-7.87-.172 1.368 10.607 6.502-10.435Z" clip-rule="evenodd"/>
  <path fill="#EB8F35" fill-rule="evenodd" d="m78.236 78.138-14.54-4.62 6.5-10.434L82 63.938l-3.764 14.2Z" clip-rule="evenodd"/>
  <path fill="#E8821E" fill-rule="evenodd" d="m55.13 38.621 7.355 6.16 5.646 6.842-14.027.514L55.13 38.62Z" clip-rule="evenodd"/>
  <path fill="#DFCEC3" fill-rule="evenodd" d="m63.675 73.521-9.067-6.33.685 5.475v3.08l6.159-1.199 2.224-1.026h-.001Zm-27.37 0 8.894-6.33-.684 5.475v3.08l-6.159-1.199-2.052-1.026Z" clip-rule="evenodd"/>
  <path fill="#393939" fill-rule="evenodd" d="m57.876 55.045-1.882 3.935 6.672-1.71-4.79-2.225Z" clip-rule="evenodd"/>
  <path fill="#E88F35" fill-rule="evenodd" d="M78.399 21 55.132 38.622l3.935-9.58 19.33-8.04L78.4 21Z" clip-rule="evenodd"/>
  <path fill="#8E5A30" fill-rule="evenodd" d="m78.403 21 3.08 9.409-1.711 10.265 1.197.684-1.711 1.54 1.368 1.197-1.88 1.712 1.197 1.025-2.737 3.422-12.833-3.935c-6.273-5.018-9.352-7.583-9.238-7.698.114-.114 7.87-5.988 23.268-17.621Z" clip-rule="evenodd"/>
  <path fill="#F89D35" fill-rule="evenodd" d="M22.79 50.082 18 63.94l11.976-.684h7.697V57.27l-.342-12.318-1.71 1.368-12.83 3.763Z" clip-rule="evenodd"/>
  <path fill="#D87C30" fill-rule="evenodd" d="m31.856 51.624 14.027.342-1.538 7.184-6.672-1.71-5.817-5.817Z" clip-rule="evenodd"/>
  <path fill="#EA8D3A" fill-rule="evenodd" d="m31.857 51.794 5.816 5.474v5.474l-5.816-10.948Z" clip-rule="evenodd"/>
  <path fill="#F89D35" fill-rule="evenodd" d="m37.683 57.44 6.843 1.71 2.225 7.357-1.54.856-7.528-4.449V57.44Z" clip-rule="evenodd"/>
  <path fill="#EB8F35" fill-rule="evenodd" d="m37.695 62.912-1.367 10.607 8.894-6.159-7.527-4.448Z" clip-rule="evenodd"/>
  <path fill="#EA8E3A" fill-rule="evenodd" d="m45.895 51.966.856 14.54-2.567-7.44 1.711-7.1Z" clip-rule="evenodd"/>
  <path fill="#D87C30" fill-rule="evenodd" d="m29.804 63.084 7.87-.172-1.368 10.607-6.502-10.435Z" clip-rule="evenodd"/>
  <path fill="#EB8F35" fill-rule="evenodd" d="m21.786 78.138 14.54-4.62-6.5-10.434-11.804.854 3.764 14.2Z" clip-rule="evenodd"/>
  <path fill="#E8821E" fill-rule="evenodd" d="m44.857 38.621-7.355 6.16-5.646 6.842 14.027.514-1.026-13.516Z" clip-rule="evenodd"/>
  <path fill="#393939" fill-rule="evenodd" d="m42.137 55.045 1.881 3.935-6.672-1.71 4.79-2.225Z" clip-rule="evenodd"/>
  <path fill="#E88F35" fill-rule="evenodd" d="m21.607 21 23.267 17.622-3.935-9.58-19.331-8.04-.002-.002Z" clip-rule="evenodd"/>
  <path fill="#8E5A30" fill-rule="evenodd" d="m21.602 21-3.079 9.409 1.71 10.265-1.197.684 1.712 1.54-1.369 1.197 1.882 1.712-1.198 1.025 2.737 3.422 12.833-3.935c6.273-5.018 9.351-7.583 9.237-7.698C44.758 38.507 37 32.633 21.602 21Z" clip-rule="evenodd"/>
</svg>
