<svg xmlns="http://www.w3.org/2000/svg" fill="none" viewBox="0 0 100 100">
  <g clip-path="url(#clip0_5425_10672)">
    <path fill="url(#paint0_linear_5425_10672)" d="M100 50c0-27.614-22.386-50-50-50S0 22.386 0 50s22.386 50 50 50 50-22.386 50-50Z"/>
    <path fill="url(#paint1_linear_5425_10672)" d="M80.931 54.472c2.453-5.501-9.681-20.875-21.275-27.28-7.308-4.96-14.922-4.28-16.465-2.101-3.385 4.781 11.207 8.833 20.967 13.56-2.099.913-4.075 2.555-5.238 4.652-3.639-3.984-11.625-7.417-20.993-4.653-6.313 1.864-11.563 6.255-13.59 12.89a3.982 3.982 0 0 0-5.286 5.17 3.981 3.981 0 0 0 3.674 2.464c.406 0 1.678-.274 1.678-.274l20.33.147C36.603 71.99 30.178 73.88 30.178 76.122c0 2.242 6.147 1.635 8.456.799 11.05-4 22.92-16.47 24.955-20.058 8.553 1.07 15.74 1.197 17.342-2.39Z"/>
    <path fill="url(#paint2_linear_5425_10672)" fill-rule="evenodd" d="M64.146 38.654c.453-.178.38-.849.256-1.375-.286-1.21-5.211-6.09-9.836-8.277-6.303-2.978-10.944-2.825-11.63-1.453 1.283 2.64 7.235 5.12 13.453 7.71 2.652 1.104 5.352 2.23 7.758 3.393l-.001.002Z" clip-rule="evenodd"/>
    <path fill="url(#paint3_linear_5425_10672)" fill-rule="evenodd" d="M56.159 65.224a37.089 37.089 0 0 0-4.352-1.344c1.746-3.134 2.113-7.774.464-10.706-2.312-4.116-5.218-6.307-11.965-6.307-3.713 0-13.705 1.254-13.883 9.625-.019.877 0 1.682.063 2.422l18.25.133c-2.461 3.916-4.766 6.82-6.782 9.028 2.422.624 4.419 1.146 6.255 1.625 1.74.456 3.334.874 5.002 1.3a76.127 76.127 0 0 0 6.948-5.776Z" clip-rule="evenodd"/>
    <path fill="url(#paint4_linear_5425_10672)" d="M24.085 58.056c.745 6.36 4.347 8.85 11.706 9.588 7.36.737 11.58.242 17.2.756 4.694.428 8.885 2.828 10.44 1.998 1.4-.747.617-3.444-1.255-5.172-2.427-2.243-5.786-3.803-11.697-4.356 1.178-3.236.848-7.773-.981-10.242-2.646-3.569-7.529-5.183-13.707-4.478-6.456.737-12.64 3.926-11.706 11.906Z"/>
  </g>
  <defs>
    <linearGradient id="paint0_linear_5425_10672" x1="29.506" x2="99.964" y1="48.234" y2="65.516" gradientUnits="userSpaceOnUse">
      <stop stop-color="#8697FF"/>
      <stop offset="1" stop-color="#ABB7FF"/>
    </linearGradient>
    <linearGradient id="paint1_linear_5425_10672" x1="37.192" x2="80.423" y1="49.6" y2="61.819" gradientUnits="userSpaceOnUse">
      <stop stop-color="#fff"/>
      <stop offset="1" stop-color="#fff"/>
    </linearGradient>
    <linearGradient id="paint2_linear_5425_10672" x1="73.114" x2="41.832" y1="48.777" y2="17.524" gradientUnits="userSpaceOnUse">
      <stop stop-color="#8697FF"/>
      <stop offset="1" stop-color="#8697FF" stop-opacity="0"/>
    </linearGradient>
    <linearGradient id="paint3_linear_5425_10672" x1="57.026" x2="27.026" y1="66.316" y2="49.127" gradientUnits="userSpaceOnUse">
      <stop stop-color="#8697FF"/>
      <stop offset="1" stop-color="#8697FF" stop-opacity="0"/>
    </linearGradient>
    <linearGradient id="paint4_linear_5425_10672" x1="39.763" x2="60.091" y1="49.278" y2="75.02" gradientUnits="userSpaceOnUse">
      <stop stop-color="#fff"/>
      <stop offset=".984" stop-color="#D1D8FF"/>
    </linearGradient>
    <clipPath id="clip0_5425_10672">
      <path fill="#fff" d="M0 0h100v100H0z"/>
    </clipPath>
  </defs>
</svg>